<svg width="78" height="47" viewBox="0 0 78 47" fill="none" xmlns="http://www.w3.org/2000/svg">
<path d="M21.32 31.88C20.6 33.64 19.5867 35 18.28 35.96C16.9733 36.92 15.0133 37.4 12.4 37.4C9.12 37.4 6.74667 36.4 5.28 34.4C3.81333 32.3733 3.08 29.2267 3.08 24.96V21.04C3.08 16.7733 3.81333 13.64 5.28 11.64C6.74667 9.61333 9.12 8.6 12.4 8.6C15.0133 8.6 16.9733 9.08 18.28 10.04C19.5867 11 20.6 12.36 21.32 14.12L20.24 14.64C19.6267 13.0933 18.76 11.9067 17.64 11.08C16.52 10.2267 14.7733 9.8 12.4 9.8C11.0933 9.8 9.97333 9.97333 9.04 10.32C8.10667 10.64 7.26667 11.2 6.52 12C5.77333 12.8 5.21333 13.96 4.84 15.48C4.46667 16.9733 4.28 18.8267 4.28 21.04V24.96C4.28 27.1733 4.46667 29.04 4.84 30.56C5.21333 32.0533 5.77333 33.2 6.52 34C7.26667 34.8 8.10667 35.3733 9.04 35.72C9.97333 36.04 11.0933 36.2 12.4 36.2C14.7733 36.2 16.52 35.7867 17.64 34.96C18.76 34.1067 19.6267 32.9067 20.24 31.36L21.32 31.88ZM27.2766 13.8H28.4766V37H27.2766V13.8ZM36.0656 37V13.8H37.2656L50.3056 34.8V13.8H51.5056V37H50.3056L37.2656 15.96V37H36.0656ZM70.7125 6.44L66.0325 12L65.1125 11.24L69.7925 5.64L70.7125 6.44ZM74.6325 34.64C73.1658 36.48 70.7658 37.4 67.4325 37.4C64.0992 37.4 61.7125 36.4533 60.2725 34.56C58.8325 32.6667 58.1125 29.6133 58.1125 25.4C58.1125 21.1867 58.8325 18.1333 60.2725 16.24C61.7125 14.3467 64.0992 13.4 67.4325 13.4C71.2992 13.4 73.9258 14.6667 75.3125 17.2L65.5125 25.4H63.6325L73.7525 16.96C72.5792 15.3867 70.4725 14.6 67.4325 14.6C66.0992 14.6 64.9792 14.7467 64.0725 15.04C63.1658 15.3067 62.3258 15.8267 61.5525 16.6C60.8058 17.3467 60.2458 18.4533 59.8725 19.92C59.4992 21.36 59.3125 23.1867 59.3125 25.4C59.3125 27.6133 59.4992 29.4533 59.8725 30.92C60.2458 32.36 60.8058 33.4667 61.5525 34.24C62.3258 34.9867 63.1658 35.5067 64.0725 35.8C64.9792 36.0667 66.0992 36.2 67.4325 36.2C70.4725 36.2 72.5792 35.4133 73.7525 33.84L74.6325 34.64Z" fill="black"/>
<path d="M21.32 31.88C20.6 33.64 19.5867 35 18.28 35.96C16.9733 36.92 15.0133 37.4 12.4 37.4C9.12 37.4 6.74667 36.4 5.28 34.4C3.81333 32.3733 3.08 29.2267 3.08 24.96V21.04C3.08 16.7733 3.81333 13.64 5.28 11.64C6.74667 9.61333 9.12 8.6 12.4 8.6C15.0133 8.6 16.9733 9.08 18.28 10.04C19.5867 11 20.6 12.36 21.32 14.12L20.24 14.64C19.6267 13.0933 18.76 11.9067 17.64 11.08C16.52 10.2267 14.7733 9.8 12.4 9.8C11.0933 9.8 9.97333 9.97333 9.04 10.32C8.10667 10.64 7.26667 11.2 6.52 12C5.77333 12.8 5.21333 13.96 4.84 15.48C4.46667 16.9733 4.28 18.8267 4.28 21.04V24.96C4.28 27.1733 4.46667 29.04 4.84 30.56C5.21333 32.0533 5.77333 33.2 6.52 34C7.26667 34.8 8.10667 35.3733 9.04 35.72C9.97333 36.04 11.0933 36.2 12.4 36.2C14.7733 36.2 16.52 35.7867 17.64 34.96C18.76 34.1067 19.6267 32.9067 20.24 31.36L21.32 31.88ZM27.2766 13.8H28.4766V37H27.2766V13.8ZM36.0656 37V13.8H37.2656L50.3056 34.8V13.8H51.5056V37H50.3056L37.2656 15.96V37H36.0656ZM70.7125 6.44L66.0325 12L65.1125 11.24L69.7925 5.64L70.7125 6.44ZM74.6325 34.64C73.1658 36.48 70.7658 37.4 67.4325 37.4C64.0992 37.4 61.7125 36.4533 60.2725 34.56C58.8325 32.6667 58.1125 29.6133 58.1125 25.4C58.1125 21.1867 58.8325 18.1333 60.2725 16.24C61.7125 14.3467 64.0992 13.4 67.4325 13.4C71.2992 13.4 73.9258 14.6667 75.3125 17.2L65.5125 25.4H63.6325L73.7525 16.96C72.5792 15.3867 70.4725 14.6 67.4325 14.6C66.0992 14.6 64.9792 14.7467 64.0725 15.04C63.1658 15.3067 62.3258 15.8267 61.5525 16.6C60.8058 17.3467 60.2458 18.4533 59.8725 19.92C59.4992 21.36 59.3125 23.1867 59.3125 25.4C59.3125 27.6133 59.4992 29.4533 59.8725 30.92C60.2458 32.36 60.8058 33.4667 61.5525 34.24C62.3258 34.9867 63.1658 35.5067 64.0725 35.8C64.9792 36.0667 66.0992 36.2 67.4325 36.2C70.4725 36.2 72.5792 35.4133 73.7525 33.84L74.6325 34.64Z" fill="black"/>
<path d="M18.99 30.16C18.45 31.48 17.69 32.5 16.71 33.22C15.73 33.94 14.26 34.3 12.3 34.3C9.84 34.3 8.06 33.55 6.96 32.05C5.86 30.53 5.31 28.17 5.31 24.97V22.03C5.31 18.83 5.86 16.48 6.96 14.98C8.06 13.46 9.84 12.7 12.3 12.7C14.26 12.7 15.73 13.06 16.71 13.78C17.69 14.5 18.45 15.52 18.99 16.84L18.18 17.23C17.72 16.07 17.07 15.18 16.23 14.56C15.39 13.92 14.08 13.6 12.3 13.6C11.32 13.6 10.48 13.73 9.78 13.99C9.08 14.23 8.45 14.65 7.89 15.25C7.33 15.85 6.91 16.72 6.63 17.86C6.35 18.98 6.21 20.37 6.21 22.03V24.97C6.21 26.63 6.35 28.03 6.63 29.17C6.91 30.29 7.33 31.15 7.89 31.75C8.45 32.35 9.08 32.78 9.78 33.04C10.48 33.28 11.32 33.4 12.3 33.4C14.08 33.4 15.39 33.09 16.23 32.47C17.07 31.83 17.72 30.93 18.18 29.77L18.99 30.16Z" fill="black"/>
<path d="M72.49 32.23C71.39 33.61 69.59 34.3 67.09 34.3C64.59 34.3 62.8 33.59 61.72 32.17C60.64 30.75 60.1 28.46 60.1 25.3C60.1 22.14 60.64 19.85 61.72 18.43C62.8 17.01 64.59 16.3 67.09 16.3C69.99 16.3 71.96 17.25 73 19.15L65.65 25.3H64.24L71.83 18.97C70.95 17.79 69.37 17.2 67.09 17.2C66.09 17.2 65.25 17.31 64.57 17.53C63.89 17.73 63.26 18.12 62.68 18.7C62.12 19.26 61.7 20.09 61.42 21.19C61.14 22.27 61 23.64 61 25.3C61 26.96 61.14 28.34 61.42 29.44C61.7 30.52 62.12 31.35 62.68 31.93C63.26 32.49 63.89 32.88 64.57 33.1C65.25 33.3 66.09 33.4 67.09 33.4C69.37 33.4 70.95 32.81 71.83 31.63L72.49 32.23Z" fill="black"/>
<path d="M37.85 34V16.6H38.75L48.53 32.35V16.6H49.43V34H48.53L38.75 18.22V34H37.85Z" fill="black"/>
</svg>
