<svg width="24" height="47" viewBox="0 0 24 47" fill="none" xmlns="http://www.w3.org/2000/svg">
<path d="M18.99 30.16C18.45 31.48 17.69 32.5 16.71 33.22C15.73 33.94 14.26 34.3 12.3 34.3C9.84 34.3 8.06 33.55 6.96 32.05C5.86 30.53 5.31 28.17 5.31 24.97V22.03C5.31 18.83 5.86 16.48 6.96 14.98C8.06 13.46 9.84 12.7 12.3 12.7C14.26 12.7 15.73 13.06 16.71 13.78C17.69 14.5 18.45 15.52 18.99 16.84L18.18 17.23C17.72 16.07 17.07 15.18 16.23 14.56C15.39 13.92 14.08 13.6 12.3 13.6C11.32 13.6 10.48 13.73 9.78 13.99C9.08 14.23 8.45 14.65 7.89 15.25C7.33 15.85 6.91 16.72 6.63 17.86C6.35 18.98 6.21 20.37 6.21 22.03V24.97C6.21 26.63 6.35 28.03 6.63 29.17C6.91 30.29 7.33 31.15 7.89 31.75C8.45 32.35 9.08 32.78 9.78 33.04C10.48 33.28 11.32 33.4 12.3 33.4C14.08 33.4 15.39 33.09 16.23 32.47C17.07 31.83 17.72 30.93 18.18 29.77L18.99 30.16Z" fill="black"/>
<path d="M21.32 31.88C20.6 33.64 19.5867 35 18.28 35.96C16.9733 36.92 15.0133 37.4 12.4 37.4C9.12 37.4 6.74667 36.4 5.28 34.4C3.81333 32.3733 3.08 29.2267 3.08 24.96V21.04C3.08 16.7733 3.81333 13.64 5.28 11.64C6.74667 9.61333 9.12 8.6 12.4 8.6C15.0133 8.6 16.9733 9.08 18.28 10.04C19.5867 11 20.6 12.36 21.32 14.12L20.24 14.64C19.6267 13.0933 18.76 11.9067 17.64 11.08C16.52 10.2267 14.7733 9.8 12.4 9.8C11.0933 9.8 9.97333 9.97333 9.04 10.32C8.10667 10.64 7.26667 11.2 6.52 12C5.77333 12.8 5.21333 13.96 4.84 15.48C4.46667 16.9733 4.28 18.8267 4.28 21.04V24.96C4.28 27.1733 4.46667 29.04 4.84 30.56C5.21333 32.0533 5.77333 33.2 6.52 34C7.26667 34.8 8.10667 35.3733 9.04 35.72C9.97333 36.04 11.0933 36.2 12.4 36.2C14.7733 36.2 16.52 35.7867 17.64 34.96C18.76 34.1067 19.6267 32.9067 20.24 31.36L21.32 31.88Z" fill="black"/>
</svg>
